<svg width="20" height="20" viewBox="0 0 20 20" fill="none" xmlns="http://www.w3.org/2000/svg">
<path fill-rule="evenodd" clip-rule="evenodd" d="M20 10C20 15.5229 15.5228 20 10 20C4.47715 20 0 15.5229 0 10C0 4.47716 4.47715 0 10 0C15.5228 0 20 4.47716 20 10ZM12.5 6.25001C12.5 7.63073 11.3807 8.75002 10 8.75002C8.61929 8.75002 7.5 7.63073 7.5 6.25001C7.5 4.8693 8.61929 3.75001 10 3.75001C11.3807 3.75001 12.5 4.8693 12.5 6.25001ZM9.99992 11.25C7.47799 11.25 5.30493 12.7437 4.31717 14.8947C5.69254 16.4901 7.72831 17.5 9.99998 17.5C12.2716 17.5 14.3073 16.4901 15.6827 14.8948C14.695 12.7438 12.5219 11.25 9.99992 11.25Z" fill="#878789"/>
</svg>
