<svg width="16" height="18" viewBox="0 0 16 18" fill="none" xmlns="http://www.w3.org/2000/svg">
<path d="M0 11.25V14.625C0 16.489 3.52576 18 7.875 18C12.2242 18 15.75 16.489 15.75 14.625V11.25C15.75 13.114 12.2242 14.625 7.875 14.625C3.52576 14.625 0 13.114 0 11.25Z" fill="#878789"/>
<path d="M0 5.625V9C0 10.864 3.52576 12.375 7.875 12.375C12.2242 12.375 15.75 10.864 15.75 9V5.625C15.75 7.48896 12.2242 9 7.875 9C3.52576 9 0 7.48896 0 5.625Z" fill="#878789"/>
<path d="M15.75 3.375C15.75 5.23896 12.2242 6.75 7.875 6.75C3.52576 6.75 0 5.23896 0 3.375C0 1.51104 3.52576 0 7.875 0C12.2242 0 15.75 1.51104 15.75 3.375Z" fill="#878789"/>
</svg>
