<svg width="50" height="42" viewBox="0 0 50 42" fill="none" xmlns="http://www.w3.org/2000/svg">
<rect width="50" height="42" rx="8" fill="#3A3F50"/>
<g clip-path="url(#clip0_4724_40168)">
<path d="M34.106 17.1831C33.8721 16.5342 33.5645 15.9143 33.1893 15.3355C32.8248 14.7523 32.3846 14.2198 31.8803 13.7521C31.3874 13.2773 30.8666 12.843 30.3452 12.4188C29.8237 11.9946 29.2993 11.5422 28.6925 11.209C28.0825 10.884 27.4227 10.6629 26.7401 10.5548C26.064 10.4349 25.3721 10.4349 24.696 10.5548V10.6238C25.3611 10.7552 25.9978 10.8899 26.6244 11.0697C27.251 11.2494 27.8471 11.4948 28.4477 11.7314C29.0483 11.968 29.6693 12.2174 30.2095 12.6021C30.7453 12.9896 31.2138 13.4626 31.5961 14.0022C31.972 14.5359 32.3175 15.0905 32.6311 15.6631C32.9318 16.2356 33.1945 16.8272 33.4177 17.4341C33.8938 18.639 34.1954 19.9056 34.4178 21.2347H34.4836C34.7044 19.8938 34.5503 18.4882 34.106 17.1831Z" fill="white"/>
<path d="M24.4499 9.00011C18.0982 9.02837 12.9722 14.1998 13.0001 20.5507C13.028 26.9017 18.1998 32.0281 24.5507 32.0002C30.9017 31.9722 36.0281 26.8005 36.0001 20.4495C35.9722 14.0986 30.8011 8.97251 24.4499 9.00011ZM24.5484 31.1376C18.6745 31.1643 13.8912 26.424 13.8643 20.5501C13.8373 14.6762 18.5796 9.89284 24.4535 9.8659C30.327 9.84027 35.1097 14.5799 35.137 20.4535C35.1642 26.327 30.4239 31.111 24.5501 31.1376H24.5484Z" fill="white"/>
<path d="M30.8033 19.9338C30.8038 20.022 30.7781 20.1083 30.7295 20.1819C30.6809 20.2554 30.6116 20.3129 30.5303 20.3471C30.449 20.3813 30.3594 20.3906 30.2729 20.3739C30.1863 20.3571 30.1066 20.3151 30.044 20.2531C29.9813 20.1911 29.9384 20.1119 29.9207 20.0255C29.903 19.9392 29.9113 19.8495 29.9446 19.7678C29.9779 19.6862 30.0346 19.6162 30.1076 19.5668C30.1806 19.5174 30.2667 19.4908 30.3548 19.4902C30.4134 19.4899 30.4715 19.5011 30.5257 19.5232C30.58 19.5453 30.6293 19.5779 30.671 19.6191C30.7126 19.6603 30.7458 19.7093 30.7685 19.7633C30.7912 19.8173 30.803 19.8752 30.8033 19.9338Z" fill="white"/>
<path d="M24.5398 14.8258C25.0757 14.8642 27.0133 15.4925 27.5133 15.8358C27.0967 14.6276 25.6941 14.4666 24.5398 14.8258Z" fill="white"/>
<path d="M24.44 17.8998C24.44 18.1858 24.3552 18.4653 24.1963 18.703C24.0375 18.9408 23.8117 19.1261 23.5475 19.2355C23.2834 19.3449 22.9927 19.3735 22.7122 19.3178C22.4318 19.262 22.1742 19.1243 21.972 18.9221C21.7698 18.7199 21.6321 18.4623 21.5764 18.1819C21.5206 17.9014 21.5492 17.6107 21.6586 17.3466C21.7681 17.0824 21.9534 16.8566 22.1911 16.6977C22.4288 16.5389 22.7084 16.4541 22.9943 16.4541C23.1841 16.4541 23.3721 16.4915 23.5475 16.5642C23.7229 16.6368 23.8823 16.7433 24.0166 16.8775C24.1508 17.0118 24.2573 17.1712 24.3299 17.3466C24.4026 17.522 24.44 17.71 24.44 17.8998Z" fill="white"/>
<path d="M32.4693 20.8398C30.8025 22.0141 28.9076 22.9048 26.2192 22.9048C24.9608 22.9048 24.7058 21.5715 23.8742 22.2231C23.4451 22.5615 21.9317 23.3182 20.7308 23.2607C19.5298 23.2032 17.5834 22.4991 17.0416 19.9355C16.8267 22.4984 16.7166 24.3874 15.7539 26.5513C17.6708 29.6205 22.2406 31.9882 26.3891 30.968C25.9432 27.8558 28.6631 24.8073 30.1956 23.2466C30.7792 22.6551 31.8874 21.6918 32.47 20.8375L32.4693 20.8398Z" fill="white"/>
<path d="M29.8949 16.6993C29.1234 16.4759 28.3234 16.1591 27.5134 15.8391C27.4668 15.6357 27.2867 15.3824 26.922 15.0732C26.393 14.6132 25.3987 14.6257 24.5395 14.8291C23.5913 14.606 22.6545 14.5268 21.7555 14.746C14.4018 16.7716 18.5717 21.7156 15.8718 26.6826C16.2559 27.4985 20.3966 32.2526 26.3884 30.9767C26.3884 30.9767 24.3391 26.0524 28.9634 23.689C32.7144 21.7649 35.4241 18.2052 29.8949 16.6993ZM22.9949 19.939C22.7249 19.9391 22.4574 19.8861 22.2079 19.7828C21.9583 19.6796 21.7315 19.5282 21.5405 19.3373C21.3495 19.1464 21.1979 18.9197 21.0944 18.6703C20.991 18.4208 20.9377 18.1534 20.9376 17.8833C20.9375 17.6133 20.9905 17.3458 21.0938 17.0963C21.197 16.8467 21.3484 16.6199 21.5393 16.4289C21.7302 16.2379 21.9569 16.0863 22.2063 15.9828C22.4558 15.8794 22.7232 15.8261 22.9933 15.826C23.2633 15.8258 23.5306 15.8789 23.7801 15.9821C24.0296 16.0853 24.2563 16.2366 24.4473 16.4274C24.6383 16.6182 24.7898 16.8448 24.8933 17.0942C24.9967 17.3436 25.05 17.6109 25.0501 17.8809C25.0503 18.151 24.9973 18.4185 24.894 18.6682C24.7908 18.9178 24.6394 19.1447 24.4485 19.3358C24.2576 19.5269 24.0309 19.6785 23.7814 19.7821C23.5319 19.8856 23.2644 19.9389 22.9943 19.939H22.9949ZM30.6444 22.0458C30.0101 22.347 29.3488 22.5878 28.6693 22.7651C27.9895 22.9409 27.2805 23.0733 26.5619 23.0082C25.8433 22.9432 25.1096 22.699 24.6335 22.1608L24.6562 22.1349C25.2394 22.5134 25.913 22.6468 26.5829 22.6658C27.2618 22.6865 27.9409 22.6306 28.6072 22.4993C29.2806 22.3583 29.9393 22.1545 30.5747 21.8907C31.2105 21.6279 31.8397 21.3243 32.3819 20.8909L32.4045 20.9165C31.8867 21.387 31.271 21.7376 30.6444 22.0458Z" fill="white"/>
</g>
<defs>
<clipPath id="clip0_4724_40168">
<rect width="23" height="23" fill="white" transform="translate(13 9)"/>
</clipPath>
</defs>
</svg>
