<svg width="44" height="44" viewBox="0 0 44 44" fill="none" xmlns="http://www.w3.org/2000/svg">
<circle cx="22" cy="22" r="21.5" fill="#27242E" stroke="#3A3F50"/>
<path d="M23.3398 23.2227V23.7852H20.2695C20.2617 23.5195 20.2578 23.2344 20.2578 22.9297C20.2578 22.0469 20.3711 21.3711 20.5977 20.9023C20.7773 20.5586 21.0195 20.2383 21.3242 19.9414C21.4961 19.7773 21.8711 19.4688 22.4492 19.0156C22.9492 18.625 23.2773 18.3047 23.4336 18.0547C23.6289 17.7578 23.7266 17.4336 23.7266 17.082C23.7266 16.6211 23.582 16.2461 23.293 15.957C23.0039 15.6445 22.6094 15.4883 22.1094 15.4883C21.4922 15.4883 21.0273 15.7266 20.7148 16.2031C20.543 16.4688 20.457 16.8359 20.457 17.3047H17.6094C17.6172 16.4141 17.7773 15.6602 18.0898 15.043C18.8555 13.5039 20.2188 12.7344 22.1797 12.7344C23.1328 12.7344 24.0156 12.9648 24.8281 13.4258C25.5859 13.8555 26.1328 14.457 26.4688 15.2305C26.7109 15.7617 26.832 16.3633 26.832 17.0352C26.832 18.0117 26.5625 18.8516 26.0234 19.5547C25.6953 19.9844 25.25 20.3984 24.6875 20.7969C24.1641 21.1875 23.8438 21.4531 23.7266 21.5938C23.4609 21.9141 23.3281 22.3633 23.3281 22.9414L23.3398 23.2227ZM21.8398 25.7656C22.3633 25.7656 22.793 25.9453 23.1289 26.3047C23.4414 26.6406 23.5977 27.0625 23.5977 27.5703C23.5977 28.1094 23.3945 28.5547 22.9883 28.9062C22.6758 29.1719 22.2891 29.3047 21.8281 29.3047C21.2891 29.3047 20.8555 29.125 20.5273 28.7656C20.2148 28.4297 20.0586 28.0195 20.0586 27.5352C20.0586 26.9727 20.2617 26.5156 20.668 26.1641C20.9648 25.8984 21.3555 25.7656 21.8398 25.7656Z" fill="#FAFAFA"/>
</svg>
