<svg width="86" height="44" viewBox="0 0 86 44" fill="none" xmlns="http://www.w3.org/2000/svg">
<path fill-rule="evenodd" clip-rule="evenodd" d="M6 0C2.68629 0 0 2.68629 0 6V29C0 32.3137 2.68629 35 6 35H35.8053L43 44L50.1947 35H80C83.3137 35 86 32.3137 86 29V6C86 2.68629 83.3137 0 80 0H6Z" fill="#27242E" fill-opacity="0.75"/>
<path d="M24.7969 19.4844L25.6953 20.3906C25.237 20.9219 24.7734 21.3203 24.3047 21.5859C23.5599 21.9922 22.724 22.1953 21.7969 22.1953C20.2812 22.1953 19.0547 21.6719 18.1172 20.625C17.6224 20.0677 17.25 19.3932 17 18.6016C16.8021 17.9766 16.7031 17.3385 16.7031 16.6875C16.7031 15.651 16.9323 14.6901 17.3906 13.8047C17.8229 12.9609 18.4349 12.2995 19.2266 11.8203C19.9818 11.3672 20.8438 11.1406 21.8125 11.1406C22.7969 11.1406 23.6849 11.3828 24.4766 11.8672C24.8828 12.1224 25.2995 12.487 25.7266 12.9609L24.7969 13.8281C24.3906 13.4167 24.0547 13.125 23.7891 12.9531C23.2005 12.5729 22.5495 12.3828 21.8359 12.3828C20.6901 12.3828 19.7526 12.8333 19.0234 13.7344C18.3932 14.5208 18.0781 15.5026 18.0781 16.6797C18.0781 17.5495 18.2708 18.3411 18.6562 19.0547C18.9583 19.6068 19.4062 20.0625 20 20.4219C20.5885 20.776 21.224 20.9531 21.9062 20.9531C22.6042 20.9531 23.2396 20.7708 23.8125 20.4062C24.1354 20.1979 24.4635 19.8906 24.7969 19.4844ZM30.4922 14.4531C31.6589 14.4531 32.6146 14.888 33.3594 15.7578C33.9375 16.4401 34.2266 17.3021 34.2266 18.3438C34.2266 19.474 33.8281 20.4141 33.0312 21.1641C32.3229 21.8359 31.4609 22.1719 30.4453 22.1719C29.6953 22.1719 29.013 21.9818 28.3984 21.6016C27.2786 20.8984 26.7188 19.7995 26.7188 18.3047C26.7188 17.0807 27.1016 16.1198 27.8672 15.4219C28.5755 14.776 29.4505 14.4531 30.4922 14.4531ZM30.4922 15.5703C29.6901 15.5703 29.0495 15.8568 28.5703 16.4297C28.1641 16.9036 27.9609 17.5365 27.9609 18.3281C27.9609 19.1667 28.1979 19.8307 28.6719 20.3203C29.1562 20.8099 29.7578 21.0547 30.4766 21.0547C31.3047 21.0547 31.9557 20.7422 32.4297 20.1172C32.7995 19.6276 32.9844 19.0286 32.9844 18.3203C32.9844 17.4401 32.737 16.7578 32.2422 16.2734C31.7682 15.8047 31.1849 15.5703 30.4922 15.5703ZM36.0781 25.4531V14.625H37.3047V15.9688C37.6016 15.5104 37.9036 15.1745 38.2109 14.9609C38.7005 14.6224 39.2943 14.4531 39.9922 14.4531C40.862 14.4531 41.6068 14.7266 42.2266 15.2734C43.0495 16.0026 43.4609 16.9974 43.4609 18.2578C43.4609 19.4974 43.0885 20.4896 42.3438 21.2344C41.7135 21.8646 40.9297 22.1797 39.9922 22.1797C39.4141 22.1797 38.8776 22.0521 38.3828 21.7969C37.9974 21.599 37.638 21.2839 37.3047 20.8516V25.4531H36.0781ZM39.7891 15.5391C38.9141 15.5391 38.2422 15.9062 37.7734 16.6406C37.4661 17.1354 37.3125 17.7292 37.3125 18.4219C37.3125 19.3073 37.5625 19.987 38.0625 20.4609C38.5208 20.8984 39.0781 21.1172 39.7344 21.1172C40.5938 21.1172 41.2474 20.776 41.6953 20.0938C42.0078 19.6042 42.1641 19.0104 42.1641 18.3125C42.1641 17.4479 41.9505 16.7786 41.5234 16.3047C41.0599 15.7943 40.4818 15.5391 39.7891 15.5391ZM45.2969 14.625H46.5156V22H45.2969V14.625ZM45.9219 11.7656C46.151 11.7656 46.3411 11.8516 46.4922 12.0234C46.6276 12.1745 46.6953 12.3542 46.6953 12.5625C46.6953 12.7865 46.6068 12.9792 46.4297 13.1406C46.2891 13.2656 46.1172 13.3281 45.9141 13.3281C45.6797 13.3281 45.487 13.2448 45.3359 13.0781C45.2005 12.9271 45.1328 12.75 45.1328 12.5469C45.1328 12.3125 45.2214 12.1146 45.3984 11.9531C45.5286 11.8281 45.7031 11.7656 45.9219 11.7656ZM55.8125 18.7031H49.6641C49.7266 19.2448 49.888 19.6979 50.1484 20.0625C50.6432 20.7292 51.3047 21.0625 52.1328 21.0625C52.6693 21.0625 53.1849 20.8854 53.6797 20.5312C53.9609 20.3333 54.1823 20.0859 54.3438 19.7891L55.4141 20.1875C55.1901 20.651 54.875 21.0417 54.4688 21.3594C53.7708 21.9062 52.9922 22.1797 52.1328 22.1797C50.9401 22.1797 49.9792 21.75 49.25 20.8906C48.6667 20.2135 48.375 19.362 48.375 18.3359C48.375 17.1901 48.7266 16.2552 49.4297 15.5312C50.1224 14.8125 51.0104 14.4531 52.0938 14.4531C53.3542 14.4531 54.3438 14.9271 55.0625 15.875C55.5781 16.5521 55.8359 17.3359 55.8359 18.2266C55.8359 18.3255 55.8281 18.4844 55.8125 18.7031ZM49.6875 17.8125H54.5391C54.4922 17.2917 54.349 16.8698 54.1094 16.5469C53.8958 16.25 53.625 16.013 53.2969 15.8359C52.9167 15.638 52.513 15.5391 52.0859 15.5391C51.5078 15.5391 51.0052 15.7135 50.5781 16.0625C50.1094 16.4375 49.8125 17.0208 49.6875 17.8125ZM63.125 15.7422V11.3359H64.3516V22H63.125V20.7344C62.8229 21.151 62.5156 21.4635 62.2031 21.6719C61.6979 22.0052 61.125 22.1719 60.4844 22.1719C59.4531 22.1719 58.6042 21.7995 57.9375 21.0547C57.3229 20.362 57.0156 19.4609 57.0156 18.3516C57.0156 17.6276 57.1693 16.9505 57.4766 16.3203C57.7474 15.7578 58.1562 15.3021 58.7031 14.9531C59.2448 14.6146 59.8359 14.4453 60.4766 14.4453C61.0026 14.4453 61.5 14.5573 61.9688 14.7812C62.375 14.9635 62.7604 15.2839 63.125 15.7422ZM60.7422 15.5312C59.9141 15.5312 59.2734 15.8672 58.8203 16.5391C58.4766 17.0547 58.3047 17.6641 58.3047 18.3672C58.3047 19.2266 58.5495 19.9115 59.0391 20.4219C59.4661 20.8802 60.0104 21.1094 60.6719 21.1094C61.3958 21.1094 61.9922 20.8385 62.4609 20.2969C62.6901 20.0365 62.8646 19.6979 62.9844 19.2812C63.0833 18.9531 63.1328 18.6328 63.1328 18.3203C63.1328 17.4661 62.901 16.7839 62.4375 16.2734C61.9896 15.7786 61.4245 15.5312 60.7422 15.5312ZM67.0234 11.3359H68.25V19.4219H67.0234V11.3359ZM67.6406 20.4609C67.8854 20.4609 68.0859 20.5443 68.2422 20.7109C68.3932 20.8776 68.4688 21.0755 68.4688 21.3047C68.4688 21.5651 68.3724 21.776 68.1797 21.9375C68.0339 22.0625 67.8516 22.125 67.6328 22.125C67.388 22.125 67.1875 22.0417 67.0312 21.875C66.8802 21.7083 66.8047 21.513 66.8047 21.2891C66.8047 21.0234 66.901 20.8099 67.0938 20.6484C67.2396 20.5234 67.4219 20.4609 67.6406 20.4609Z" fill="white"/>
</svg>
