<svg width="30" height="30" viewBox="0 0 30 30" fill="none" xmlns="http://www.w3.org/2000/svg">
<path d="M0 6C0 2.68629 2.68629 0 6 0H24C27.3137 0 30 2.68629 30 6V24C30 27.3137 27.3137 30 24 30H6C2.68629 30 0 27.3137 0 24V6Z" fill="#4D4A53"/>
<path fill-rule="evenodd" clip-rule="evenodd" d="M22.3779 9.82218C22.8074 10.2518 22.8074 10.9482 22.3779 11.3778L13.5779 20.1778C13.1483 20.6074 12.4518 20.6074 12.0222 20.1778L7.62223 15.7778C7.19265 15.3482 7.19265 14.6518 7.62223 14.2222C8.05181 13.7926 8.74829 13.7926 9.17787 14.2222L12.8 17.8444L20.8222 9.82218C21.2518 9.39261 21.9483 9.39261 22.3779 9.82218Z" fill="#FAFAFA"/>
</svg>
