<svg width="30" height="30" viewBox="0 0 30 30" fill="none" xmlns="http://www.w3.org/2000/svg">
<path d="M0 6C0 2.68629 2.68629 0 6 0H24C27.3137 0 30 2.68629 30 6V24C30 27.3137 27.3137 30 24 30H6C2.68629 30 0 27.3137 0 24V6Z" fill="#27242E"/>
<path d="M18 6.75H9C8.175 6.75 7.5 7.425 7.5 8.25V18.75H9V8.25H18V6.75ZM17.25 9.75L21.75 14.25V21.75C21.75 22.575 21.075 23.25 20.25 23.25H11.9925C11.1675 23.25 10.5 22.575 10.5 21.75L10.5075 11.25C10.5075 10.425 11.175 9.75 12 9.75H17.25ZM16.5 15H20.625L16.5 10.875V15Z" fill="white"/>
</svg>
