<svg width="40" height="40" viewBox="0 0 40 40" fill="none" xmlns="http://www.w3.org/2000/svg">
<circle cx="20" cy="20" r="19" fill="#363240" stroke="#3A3F50"/>
<path fill-rule="evenodd" clip-rule="evenodd" d="M27.7002 27.7C27.0927 27.7 26.6002 27.2075 26.6002 26.6L26.6002 13.4C26.6002 12.7924 27.0927 12.3 27.7002 12.3C28.3077 12.3 28.8002 12.7924 28.8002 13.4L28.8002 26.6C28.8002 27.2075 28.3077 27.7 27.7002 27.7ZM19.2224 24.0778C18.7928 23.6482 18.7928 22.9517 19.2224 22.5221L20.6446 21.1L12.3002 21.1C11.6927 21.1 11.2002 20.6075 11.2002 20C11.2002 19.3924 11.6927 18.9 12.3002 18.9L20.6446 18.9L19.2224 17.4778C18.7928 17.0482 18.7928 16.3517 19.2224 15.9221C19.652 15.4926 20.3484 15.4926 20.778 15.9221L24.078 19.2221C24.2843 19.4284 24.4002 19.7082 24.4002 20C24.4002 20.2917 24.2843 20.5715 24.078 20.7778L20.778 24.0778C20.3484 24.5073 19.652 24.5073 19.2224 24.0778Z" fill="#FAFAFA"/>
</svg>
