<svg width="22" height="23" viewBox="0 0 22 23" fill="none" xmlns="http://www.w3.org/2000/svg">
<circle cx="11" cy="11.5" r="10.5" fill="#27242E" stroke="#3A3F50"/>
<rect width="15.125" height="15.125" transform="translate(3.4375 3.9375)" fill="#27242E"/>
<path d="M9.48731 7.71894C9.06964 7.71894 8.73106 8.05753 8.73106 8.47519C8.73106 8.89286 9.06964 9.23144 9.48731 9.23144L13.7116 9.23145L12.7338 10.2092C12.4385 10.5045 12.4385 10.9834 12.7338 11.2787C13.0291 11.574 13.508 11.574 13.8033 11.2787L16.0721 9.00995C16.2139 8.86812 16.2936 8.67577 16.2936 8.4752C16.2936 8.27463 16.2139 8.08227 16.0721 7.94045L13.8033 5.6717C13.508 5.37636 13.0291 5.37636 12.7338 5.6717C12.4385 5.96703 12.4385 6.44586 12.7338 6.74119L13.7116 7.71894L9.48731 7.71894Z" fill="#FAFAFA"/>
<path d="M12.5123 15.2814C12.93 15.2814 13.2686 14.9429 13.2686 14.5252C13.2686 14.1075 12.93 13.7689 12.5123 13.7689L8.28805 13.7689L9.26581 12.7912C9.56114 12.4959 9.56114 12.017 9.26581 11.7217C8.97047 11.4264 8.49164 11.4264 8.19631 11.7217L5.92755 13.9904C5.78573 14.1323 5.70605 14.3246 5.70605 14.5252C5.70605 14.7258 5.78573 14.9181 5.92755 15.0599L8.19631 17.3287C8.49164 17.624 8.97047 17.624 9.2658 17.3287C9.56114 17.0334 9.56114 16.5545 9.2658 16.2592L8.28805 15.2814L12.5123 15.2814Z" fill="#FAFAFA"/>
</svg>
