<svg width="28" height="28" viewBox="0 0 28 28" fill="none" xmlns="http://www.w3.org/2000/svg">
<circle cx="14" cy="14" r="14" fill="white" fill-opacity="0.1"/>
<path d="M14.7001 9.1001C14.3135 9.1001 14.0001 9.4135 14.0001 9.8001C14.0001 10.1867 14.3135 10.5001 14.7001 10.5001H16.5101L12.1051 14.9051C11.8318 15.1785 11.8318 15.6217 12.1051 15.8951C12.3785 16.1684 12.8217 16.1684 13.0951 15.8951L17.5001 11.49V13.3001C17.5001 13.6867 17.8135 14.0001 18.2001 14.0001C18.5867 14.0001 18.9001 13.6867 18.9001 13.3001V9.8001C18.9001 9.4135 18.5867 9.1001 18.2001 9.1001H14.7001Z" fill="white"/>
<path d="M10.5001 10.5001C9.7269 10.5001 9.1001 11.1269 9.1001 11.9001V17.5001C9.1001 18.2733 9.7269 18.9001 10.5001 18.9001H16.1001C16.8733 18.9001 17.5001 18.2733 17.5001 17.5001V15.4001C17.5001 15.0135 17.1867 14.7001 16.8001 14.7001C16.4135 14.7001 16.1001 15.0135 16.1001 15.4001V17.5001H10.5001V11.9001L12.6001 11.9001C12.9867 11.9001 13.3001 11.5867 13.3001 11.2001C13.3001 10.8135 12.9867 10.5001 12.6001 10.5001H10.5001Z" fill="white"/>
</svg>
