<?xml version="1.0" encoding="UTF-8" standalone="no"?>
<svg
   width="22.5"
   height="18.5"
   viewBox="0 0 22.5 18.5"
   fill="none"
   version="1.1"
   id="svg1109"
   sodipodi:docname="farm-icon.svg"
   inkscape:version="1.1 (c68e22c387, 2021-05-23)"
   xmlns:inkscape="http://www.inkscape.org/namespaces/inkscape"
   xmlns:sodipodi="http://sodipodi.sourceforge.net/DTD/sodipodi-0.dtd"
   xmlns="http://www.w3.org/2000/svg"
   xmlns:svg="http://www.w3.org/2000/svg">
  <defs
     id="defs1113" />
  <sodipodi:namedview
     id="namedview1111"
     pagecolor="#ffffff"
     bordercolor="#666666"
     borderopacity="1.0"
     inkscape:pageshadow="2"
     inkscape:pageopacity="0.0"
     inkscape:pagecheckerboard="0"
     showgrid="false"
     width="18px"
     inkscape:zoom="22.627417"
     inkscape:cx="-0.11048543"
     inkscape:cy="3.822796"
     inkscape:window-width="1920"
     inkscape:window-height="1009"
     inkscape:window-x="-8"
     inkscape:window-y="-8"
     inkscape:window-maximized="1"
     inkscape:current-layer="svg1109" />
  <path
     d="m 18.875091,11.49995 c 0.1162,0 0.2307,0.0062 0.3438,0.0176 v -1.0488 c 0,-0.94772 -0.771,-1.71875 -1.7188,-1.71875 h -1.0312 V 6.34375 c 0,-0.56856 0.4627,-1.03125 1.0312,-1.03125 h 0.6875 c 0.1901,0 0.3438,-0.15366 0.3438,-0.34375 0,-0.19009 -0.1537,-0.34375 -0.3438,-0.34375 h -0.6875 c -0.9477,0 -1.7187,0.77103 -1.7187,1.71875 V 8.75 h -1.4713 L 11.638501,0.735125 C 11.591751,0.594531 11.460781,0.5 11.312621,0.5 H 3.0626217 c -0.190094,0 -0.34375,0.153656 -0.34375,0.34375 0,0.190094 0.153656,0.34375 0.34375,0.34375 h 1.718749 v 5.51684 c -0.759,0.03919 -1.49703,0.20007 -2.196561,0.49569 C 2.4098407,7.27394 2.3283719,7.47572 2.4022781,7.65069 2.4761851,7.82531 2.6786527,7.90678 2.8529347,7.83322 3.5720607,7.529 4.3369007,7.375 5.1251207,7.375 c 3.22231,0 5.8437503,2.62144 5.8437503,5.84375 0,0.4373 -0.04778,0.8752 -0.14128,1.3011 -0.02234,0.1017 0.0027,0.208 0.06772,0.2894 0.06531,0.0808 0.16397,0.1283 0.26778,0.1283 h 4.2745 c 0,-1.8955 1.5421,-3.4376 3.4375,-3.4376 z M 9.8843407,8.75 C 8.7657807,7.55959 7.2048107,6.79681 5.4688707,6.70572 V 1.1875 h 5.5959103 l 2.52101,7.5625 z"
     fill="#747474"
     id="path1107" />
  <path
     d="m 19.156591,17.673201 c 1.51878,0 2.75,-1.23122 2.75,-2.75 0,-1.51878 -1.23122,-2.75 -2.75,-2.75 -1.51878,0 -2.75,1.23122 -2.75,2.75 0,1.51878 1.23122,2.75 2.75,2.75 z"
     fill="#747474"
     id="path1285" />
  <path
     d="M 4.9687501,8.73475 C 2.5047501,8.73475 0.5,10.7395 0.5,13.2035 c 0,2.464 2.0047501,4.46875 4.4687501,4.46875 2.464,0 4.46875,-2.00475 4.46875,-4.46875 0,-2.464 -2.00475,-4.46875 -4.46875,-4.46875 z"
     fill="#747474"
     id="path1212" />
</svg>
