<svg width="19" height="32" viewBox="0 0 19 32" fill="none" xmlns="http://www.w3.org/2000/svg">
<path d="M18.6652 14.617L14.8274 10.6188V10.1595C14.8475 8.68853 14.3055 7.2695 13.3206 6.21451C12.3357 5.15951 10.9885 4.55494 9.57544 4.53378C8.16233 4.51261 6.79902 5.07659 5.78535 6.10165C4.77168 7.12672 4.19069 8.52892 4.17015 9.99986C4.17015 10.0527 4.17015 10.1066 4.17015 10.1595V15.0476C4.1664 15.1985 4.19404 15.3485 4.25116 15.4872C4.30828 15.6259 4.39353 15.7502 4.50108 15.8514L8.33885 19.8198V22.0015C8.33885 22.3061 8.45507 22.5981 8.66195 22.8135C8.86882 23.0288 9.14941 23.1498 9.44197 23.1498C9.73454 23.1498 10.0151 23.0288 10.222 22.8135C10.4289 22.5981 10.5451 22.3061 10.5451 22.0015V19.3605C10.5488 19.2096 10.5212 19.0597 10.4641 18.9209C10.407 18.7822 10.3217 18.658 10.2142 18.5567L6.3786 14.5608V10.1595C6.37027 9.73253 6.44289 9.30808 6.5923 8.91039C6.74171 8.5127 6.96498 8.14957 7.24935 7.84178C7.53371 7.534 7.87358 7.28759 8.24951 7.11666C8.62544 6.94573 9.03007 6.85363 9.44023 6.84563C9.85039 6.83763 10.258 6.91389 10.6399 7.07004C11.0217 7.22619 11.3702 7.45917 11.6654 7.75565C11.9607 8.05213 12.1968 8.40629 12.3605 8.79788C12.5241 9.18947 12.6119 9.61079 12.619 10.0377C12.619 10.0779 12.619 10.1193 12.619 10.1595V11.0218C12.6143 11.1374 12.6236 11.2531 12.6465 11.3663V11.395C12.6521 11.456 12.671 11.5149 12.7017 11.5672C12.7707 11.7483 12.8849 11.9069 13.0326 12.0265L16.8152 15.9662V22.0348C16.8135 24.0471 16.0451 25.9765 14.6786 27.3998C13.312 28.8231 11.459 29.6241 9.52581 29.6271C5.66488 29.5697 2.48568 26.4637 2.23637 22.4953C2.21849 22.1938 2.08631 21.9121 1.86889 21.712C1.65147 21.512 1.36662 21.41 1.07699 21.4285H1.04941C0.905801 21.4379 0.765372 21.4766 0.636163 21.5425C0.506955 21.6085 0.391503 21.7003 0.296417 21.8127C0.201331 21.9251 0.128477 22.0559 0.082026 22.1977C0.035575 22.3394 0.0164388 22.4893 0.0257128 22.6388C0.0257128 22.6491 0.0257128 22.6595 0.0257128 22.6698C0.164529 25.2484 1.26753 27.668 3.09864 29.4108C4.92975 31.1535 7.34347 32.0809 9.8232 31.9944C12.3029 31.908 14.6516 30.8146 16.3666 28.9483C18.0816 27.0819 19.0267 24.5909 18.9994 22.0084V15.4507C18.9892 15.1397 18.8704 14.8433 18.6652 14.617Z" fill="#80225F"/>
<path d="M4.17014 21.0875V22.0061C4.15002 23.4771 4.69202 24.8961 5.67694 25.9511C6.66185 27.0061 8.00902 27.6107 9.42212 27.6318C10.8352 27.653 12.1986 27.089 13.2122 26.064C14.2259 25.0389 14.8069 23.6367 14.8274 22.1658C14.8274 22.1129 14.8274 22.059 14.8274 22.0061V17.2018C14.8315 17.0509 14.804 16.9008 14.7468 16.7621C14.6897 16.6233 14.6043 16.4991 14.4965 16.398L10.576 12.3159V10.1342C10.576 9.8297 10.4598 9.53764 10.2529 9.3223C10.046 9.10695 9.76542 8.98598 9.47286 8.98598C9.18029 8.98598 8.89971 9.10695 8.69283 9.3223C8.48596 9.53764 8.36973 9.8297 8.36973 10.1342V12.8097C8.36547 12.9607 8.39287 13.1108 8.45002 13.2496C8.50718 13.3884 8.59271 13.5126 8.70067 13.6135L12.619 17.6611V21.9751C12.6273 22.4021 12.5547 22.8265 12.4053 23.2242C12.2559 23.6219 12.0326 23.985 11.7482 24.2928C11.4639 24.6006 11.124 24.847 10.7481 25.018C10.3721 25.1889 9.9675 25.281 9.55734 25.289C9.14718 25.297 8.73952 25.2207 8.3577 25.0646C7.97588 24.9084 7.62738 24.6754 7.33214 24.379C7.0369 24.0825 6.80072 23.7283 6.6371 23.3367C6.47348 22.9451 6.38564 22.5238 6.3786 22.0969C6.3786 22.0567 6.3786 22.0153 6.3786 21.9751V20.9107C6.42194 20.7189 6.41946 20.519 6.37138 20.3284C6.32331 20.1378 6.23109 19.9624 6.10282 19.8176H6.07524L6.04766 19.7889L2.20658 15.7963V9.87129C2.20426 8.87606 2.39028 7.8901 2.75403 6.9697C3.11777 6.04931 3.65211 5.2125 4.32654 4.50706C5.00097 3.80162 5.80228 3.24136 6.68472 2.85828C7.56716 2.47519 8.51344 2.27678 9.46955 2.27437H9.49823C13.1981 2.27437 16.374 5.2656 16.7325 9.09047V9.20529C16.7545 9.50983 16.8917 9.79283 17.1141 9.99202C17.3365 10.1912 17.6258 10.2903 17.9184 10.2674C18.2109 10.2446 18.4828 10.1017 18.6742 9.87022C18.8655 9.63873 18.9607 9.33759 18.9388 9.03306L18.9112 8.85967C18.6628 6.34285 17.4952 4.0215 15.6496 2.37513C13.804 0.728762 11.4214 -0.116835 8.99402 0.0130163C6.56663 0.142868 4.27987 1.23825 2.60614 3.07288C0.93241 4.90751 -0.000425148 7.34123 0.000335757 9.87129V16.2832C-0.00341005 16.4341 0.0242238 16.584 0.0813441 16.7228C0.138464 16.8615 0.223721 16.9857 0.331273 17.087L4.17014 21.0875Z" fill="#80225F"/>
</svg>
