<svg width="34" height="33" viewBox="0 0 34 33" fill="none" xmlns="http://www.w3.org/2000/svg">
<circle cx="17" cy="16.5" r="16" fill="#BAFE9A" fill-opacity="0.75" stroke="#3A3F50"/>
<rect x="12.4386" y="9.27166" width="1.82456" height="1.82456" fill="#0000FF" fill-opacity="0.5" stroke="#3A3F50" stroke-width="1.82456"/>
<rect x="16.0871" y="5.62224" width="1.82456" height="1.82456" fill="#994D7E" stroke="#3A3F50" stroke-width="1.82456"/>
<rect x="16.0871" y="9.27166" width="1.82456" height="1.82456" fill="#0000FF" fill-opacity="0.5" stroke="#3A3F50" stroke-width="1.82456"/>
<rect x="16.0871" y="12.9201" width="1.82456" height="1.82456" fill="#0000FF" fill-opacity="0.5" stroke="#3A3F50" stroke-width="1.82456"/>
<rect x="19.7375" y="9.27166" width="1.82456" height="1.82456" fill="#0000FF" fill-opacity="0.5" stroke="#3A3F50" stroke-width="1.82456"/>
<rect x="0.912281" y="-0.912281" width="1.82456" height="1.82456" transform="matrix(1 0 0 -1 22.4736 13.8327)" fill="#994D7E" stroke="#3A3F50" stroke-width="1.82456"/>
<rect x="0.912281" y="-0.912281" width="1.82456" height="1.82456" transform="matrix(1 0 0 -1 6.05273 9.06118)" fill="#0000FF" fill-opacity="0.5" stroke="#3A3F50" stroke-width="1.82456"/>
<rect x="0.912281" y="-0.912281" width="1.82456" height="1.82456" transform="matrix(1 0 0 -1 24.5791 9.06118)" fill="#0000FF" fill-opacity="0.5" stroke="#3A3F50" stroke-width="1.82456"/>
<rect x="0.912281" y="-0.912281" width="1.82456" height="1.82456" transform="matrix(1 0 0 -1 21.2109 6.53481)" fill="#994D7E" stroke="#3A3F50" stroke-width="1.82456"/>
<rect x="0.912281" y="-0.912281" width="1.82456" height="1.82456" transform="matrix(1 0 0 -1 9.4209 6.53481)" fill="#994D7E" stroke="#3A3F50" stroke-width="1.82456"/>
<rect x="0.912281" y="-0.912281" width="1.82456" height="1.82456" transform="matrix(1 0 0 -1 15.1748 17.4821)" fill="#0000FF" fill-opacity="0.5" stroke="#3A3F50" stroke-width="1.82456"/>
<rect x="0.912281" y="-0.912281" width="1.82456" height="1.82456" transform="matrix(1 0 0 -1 20.6494 17.4821)" fill="#994D7E" stroke="#3A3F50" stroke-width="1.82456"/>
<rect x="0.912281" y="-0.912281" width="1.82456" height="1.82456" transform="matrix(1 0 0 -1 17 22.9557)" fill="#0000FF" fill-opacity="0.5" stroke="#3A3F50" stroke-width="1.82456"/>
<rect x="0.912281" y="-0.912281" width="1.82456" height="1.82456" transform="matrix(1 0 0 -1 20.6494 26.6041)" fill="#0000FF" fill-opacity="0.5" stroke="#3A3F50" stroke-width="1.82456"/>
<rect x="0.912281" y="-0.912281" width="1.82456" height="1.82456" transform="matrix(1 0 0 -1 9.70117 26.6041)" fill="#0000FF" fill-opacity="0.5" stroke="#3A3F50" stroke-width="1.82456"/>
<rect x="0.912281" y="-0.912281" width="1.82456" height="1.82456" transform="matrix(1 0 0 -1 7.87793 22.9557)" fill="#0000FF" fill-opacity="0.5" stroke="#3A3F50" stroke-width="1.82456"/>
<rect x="0.912281" y="-0.912281" width="1.82456" height="1.82456" transform="matrix(1 0 0 -1 6.05273 17.4821)" fill="#0000FF" fill-opacity="0.5" stroke="#3A3F50" stroke-width="1.82456"/>
<rect x="0.912281" y="-0.912281" width="1.82456" height="1.82456" transform="matrix(1 0 0 -1 22.4736 22.9557)" fill="#0000FF" fill-opacity="0.5" stroke="#3A3F50" stroke-width="1.82456"/>
<rect x="0.912281" y="-0.912281" width="1.82456" height="1.82456" transform="matrix(1 0 0 -1 24.2988 17.4821)" fill="#0000FF" fill-opacity="0.5" stroke="#3A3F50" stroke-width="1.82456"/>
<rect x="0.912281" y="-0.912281" width="1.82456" height="1.82456" transform="matrix(1 0 0 -1 13.3516 22.9557)" fill="#0000FF" fill-opacity="0.5" stroke="#3A3F50" stroke-width="1.82456"/>
<rect x="0.912281" y="-0.912281" width="1.82456" height="1.82456" transform="matrix(1 0 0 -1 9.70117 17.4821)" fill="#994D7E" stroke="#3A3F50" stroke-width="1.82456"/>
<rect x="8.79021" y="12.9201" width="1.82456" height="1.82456" fill="#994D7E" stroke="#3A3F50" stroke-width="1.82456"/>
</svg>
