<svg width="13" height="15" viewBox="0 0 13 15" fill="none" xmlns="http://www.w3.org/2000/svg">
<path d="M12.2656 3.79L12.2733 3.78222L9.38 0.888889L8.55556 1.71333L10.1967 3.35444C9.46556 3.63444 8.94444 4.33444 8.94444 5.16667C8.94444 5.42201 8.99474 5.67486 9.09246 5.91077C9.19017 6.14668 9.3334 6.36104 9.51396 6.5416C9.87861 6.90625 10.3732 7.11111 10.8889 7.11111C11.1689 7.11111 11.4256 7.04889 11.6667 6.94778V12.5556C11.6667 12.9833 11.3167 13.3333 10.8889 13.3333C10.4611 13.3333 10.1111 12.9833 10.1111 12.5556V9.05556C10.1111 8.2 9.41111 7.5 8.55556 7.5H7.77778V2.05556C7.77778 1.2 7.07778 0.5 6.22222 0.5H1.55556C0.7 0.5 0 1.2 0 2.05556V14.5H7.77778V8.66667H8.94444V12.5556C8.94444 13.0713 9.14931 13.5658 9.51396 13.9305C9.87861 14.2951 10.3732 14.5 10.8889 14.5C11.4046 14.5 11.8992 14.2951 12.2638 13.9305C12.6285 13.5658 12.8333 13.0713 12.8333 12.5556V5.16667C12.8333 4.63 12.6156 4.14 12.2656 3.79ZM6.22222 5.94444H1.55556V2.05556H6.22222V5.94444ZM10.8889 5.94444C10.4611 5.94444 10.1111 5.59444 10.1111 5.16667C10.1111 4.73889 10.4611 4.38889 10.8889 4.38889C11.3167 4.38889 11.6667 4.73889 11.6667 5.16667C11.6667 5.59444 11.3167 5.94444 10.8889 5.94444Z" fill="#FAFAFA"/>
</svg>
