<svg width="96" height="96" viewBox="0 0 96 96" fill="none" xmlns="http://www.w3.org/2000/svg">
<path fill-rule="evenodd" clip-rule="evenodd" d="M11.6001 19.2002C10.4955 19.2002 9.6001 20.0956 9.6001 21.2002V55.6002C9.6001 56.7048 10.4955 57.6002 11.6001 57.6002H19.2001V28.8002H67.2002V21.2002C67.2002 20.0956 66.3048 19.2002 65.2002 19.2002H11.6001ZM28.8001 40.4002C28.8001 39.2956 29.6956 38.4002 30.8001 38.4002H84.4002C85.5048 38.4002 86.4002 39.2956 86.4002 40.4002V74.8002C86.4002 75.9048 85.5048 76.8002 84.4002 76.8002H30.8001C29.6956 76.8002 28.8001 75.9048 28.8001 74.8002V40.4002ZM57.6002 67.2002C62.9021 67.2002 67.2002 62.9021 67.2002 57.6002C67.2002 52.2983 62.9021 48.0002 57.6002 48.0002C52.2982 48.0002 48.0002 52.2983 48.0002 57.6002C48.0002 62.9021 52.2982 67.2002 57.6002 67.2002Z" fill="#FAFAFA"/>
<path fill-rule="evenodd" clip-rule="evenodd" d="M83 27C87.4183 27 91 23.4183 91 19C91 14.5817 87.4183 11 83 11C78.5817 11 75 14.5817 75 19C75 23.4183 78.5817 27 83 27ZM81.7071 16.2929C81.3166 15.9024 80.6834 15.9024 80.2929 16.2929C79.9024 16.6834 79.9024 17.3166 80.2929 17.7071L81.5858 19L80.2929 20.2929C79.9024 20.6834 79.9024 21.3166 80.2929 21.7071C80.6834 22.0976 81.3166 22.0976 81.7071 21.7071L83 20.4142L84.2929 21.7071C84.6834 22.0976 85.3166 22.0976 85.7071 21.7071C86.0976 21.3166 86.0976 20.6834 85.7071 20.2929L84.4142 19L85.7071 17.7071C86.0976 17.3166 86.0976 16.6834 85.7071 16.2929C85.3166 15.9024 84.6834 15.9024 84.2929 16.2929L83 17.5858L81.7071 16.2929Z" fill="#994D7E"/>
</svg>
