<svg width="22" height="22" viewBox="0 0 22 22" fill="none" xmlns="http://www.w3.org/2000/svg">
<circle cx="11" cy="11" r="10.5" fill="#27242E" stroke="#3A3F50"/>
<rect width="14" height="14" transform="translate(4 4)" fill="#27242E"/>
<path fill-rule="evenodd" clip-rule="evenodd" d="M14.295 12.6054C14.5683 12.8788 14.5683 13.322 14.295 13.5954L11.495 16.3954C11.2216 16.6687 10.7784 16.6687 10.505 16.3954L7.70503 13.5954C7.43166 13.322 7.43166 12.8788 7.70503 12.6054C7.97839 12.3321 8.42161 12.3321 8.69497 12.6054L10.3 14.2104L10.3 6.10039C10.3 5.71379 10.6134 5.40039 11 5.40039C11.3866 5.40039 11.7 5.71379 11.7 6.10039V14.2104L13.305 12.6054C13.5784 12.3321 14.0216 12.3321 14.295 12.6054Z" fill="#FAFAFA"/>
</svg>
