<svg width="20" height="16" viewBox="0 0 20 16" fill="none" xmlns="http://www.w3.org/2000/svg">
<path d="M14.0625 2.5625H7.98594C6.37594 0.00405985 3.69562 0.690935 3.66875 0.698123C3.58562 0.720623 3.51563 0.776247 3.47469 0.851872C3.43406 0.92781 3.42625 1.01687 3.45344 1.09875L4.34281 3.76656C3.50344 4.42625 2.86188 5.31719 2.50844 6.31219H0.625C0.4525 6.31219 0.3125 6.45187 0.3125 6.62469V10.9997C0.3125 11.1725 0.4525 11.3122 0.625 11.3122H3.14156C3.88406 12.4219 4.97563 13.2206 6.25 13.5887V15.375C6.25 15.5478 6.39 15.6875 6.5625 15.6875H9.6875C9.86 15.6875 10 15.5478 10 15.375V13.8125H12.5V15.375C12.5 15.5478 12.64 15.6875 12.8125 15.6875H15.9375C16.11 15.6875 16.25 15.5478 16.25 15.375V13.3644C18.315 12.4906 19.6875 10.4372 19.6875 8.1875C19.6875 5.08594 17.1641 2.5625 14.0625 2.5625ZM5.78125 7.5625C5.34969 7.5625 5 7.21281 5 6.78125C5 6.34969 5.34969 6 5.78125 6C6.21281 6 6.5625 6.34969 6.5625 6.78125C6.5625 7.21281 6.21281 7.5625 5.78125 7.5625ZM13.4375 5.0625H9.6875C9.515 5.0625 9.375 4.92281 9.375 4.75C9.375 4.57719 9.515 4.4375 9.6875 4.4375H13.4375C13.61 4.4375 13.75 4.57719 13.75 4.75C13.75 4.92281 13.61 5.0625 13.4375 5.0625Z" fill="#878789"/>
</svg>
