<svg width="22" height="22" viewBox="0 0 22 22" fill="none" xmlns="http://www.w3.org/2000/svg">
<circle cx="11" cy="11" r="10.5" fill="#27242E" stroke="#3A3F50"/>
<rect width="14" height="14" transform="translate(18 18) rotate(-180)" fill="#27242E"/>
<path fill-rule="evenodd" clip-rule="evenodd" d="M7.70503 9.39458C7.43166 9.12121 7.43166 8.678 7.70503 8.40463L10.505 5.60463C10.7784 5.33126 11.2216 5.33126 11.495 5.60463L14.295 8.40463C14.5683 8.678 14.5683 9.12121 14.295 9.39458C14.0216 9.66795 13.5784 9.66795 13.305 9.39458L11.7 7.78956L11.7 15.8996C11.7 16.2862 11.3866 16.5996 11 16.5996C10.6134 16.5996 10.3 16.2862 10.3 15.8996L10.3 7.78956L8.69498 9.39458C8.42161 9.66795 7.97839 9.66795 7.70503 9.39458Z" fill="#FAFAFA"/>
</svg>
