<svg width="56" height="56" viewBox="0 0 56 56" fill="none" xmlns="http://www.w3.org/2000/svg">
<path fill-rule="evenodd" clip-rule="evenodd" d="M33.2123 4.0983C31.8857 -1.3661 24.1143 -1.3661 22.7877 4.09829C21.9308 7.62822 17.8866 9.30339 14.7846 7.41331C9.98263 4.48743 4.48743 9.98263 7.41331 14.7846C9.30339 17.8866 7.62822 21.9308 4.09829 22.7877C-1.3661 24.1143 -1.3661 31.8857 4.0983 33.2123C7.62823 34.0692 9.30339 38.1134 7.41331 41.2154C4.48744 46.0174 9.98263 51.5126 14.7846 48.5867C17.8866 46.6966 21.9308 48.3718 22.7877 51.9017C24.1143 57.3661 31.8857 57.3661 33.2123 51.9017C34.0692 48.3718 38.1134 46.6966 41.2154 48.5867C46.0174 51.5126 51.5126 46.0174 48.5867 41.2154C46.6966 38.1134 48.3718 34.0692 51.9017 33.2123C57.3661 31.8857 57.3661 24.1143 51.9017 22.7877C48.3718 21.9308 46.6966 17.8866 48.5867 14.7846C51.5126 9.98263 46.0174 4.48744 41.2154 7.41331C38.1134 9.30339 34.0692 7.62823 33.2123 4.0983ZM28 38.5C33.799 38.5 38.5 33.799 38.5 28C38.5 22.201 33.799 17.5 28 17.5C22.201 17.5 17.5 22.201 17.5 28C17.5 33.799 22.201 38.5 28 38.5Z" fill="#FAFAFA"/>
</svg>
