<svg width="16" height="25" viewBox="0 0 16 25" fill="none" xmlns="http://www.w3.org/2000/svg">
<path d="M15.716 11.6473L12.4845 8.64858V8.3041C12.4931 7.75277 12.3833 7.20535 12.1617 6.69368C11.9401 6.18201 11.6109 5.7163 11.1935 5.32361C10.776 4.93092 10.2785 4.61909 9.72986 4.40625C9.18125 4.19341 8.59248 4.0838 7.99778 4.0838C7.40307 4.0838 6.8143 4.19341 6.26569 4.40625C5.71708 4.61909 5.21958 4.93092 4.80209 5.32361C4.38461 5.7163 4.05548 6.18201 3.83384 6.69368C3.6122 7.20535 3.50247 7.75277 3.51103 8.3041V11.9702C3.50787 12.0834 3.53114 12.1959 3.57924 12.2999C3.62733 12.404 3.69912 12.4971 3.78968 12.5731L7.0211 15.5494V17.1856C7.0211 17.414 7.11896 17.6331 7.29315 17.7946C7.46734 17.9561 7.7036 18.0468 7.94994 18.0468C8.19628 18.0468 8.43254 17.9561 8.60673 17.7946C8.78092 17.6331 8.87878 17.414 8.87878 17.1856V15.2049C8.88187 15.0917 8.85857 14.9793 8.81048 14.8752C8.76239 14.7712 8.69064 14.678 8.60013 14.602L5.37056 11.6051V8.3041C5.36399 7.98036 5.4271 7.65866 5.55618 7.35779C5.68526 7.05692 5.87773 6.78293 6.12234 6.55183C6.36695 6.32073 6.65879 6.13715 6.98081 6.01183C7.30282 5.88652 7.64855 5.82197 7.99778 5.82197C8.34701 5.82197 8.69273 5.88652 9.01475 6.01183C9.33676 6.13715 9.6286 6.32073 9.87321 6.55183C10.1178 6.78293 10.3103 7.05692 10.4394 7.35779C10.5685 7.65866 10.6316 7.98036 10.625 8.3041V8.95086C10.6213 9.03754 10.6291 9.12431 10.6482 9.20922V9.23075C10.653 9.2765 10.6689 9.32066 10.6947 9.35993C10.7528 9.49573 10.849 9.61466 10.9733 9.70441L14.1583 12.6592V17.2106C14.1566 18.7197 13.5095 20.1666 12.3589 21.2341C11.2083 22.3015 9.64818 22.9023 8.02053 22.9049C4.7696 22.8618 2.09269 20.5323 1.88277 17.556C1.87518 17.4422 1.84311 17.331 1.78846 17.2289C1.7338 17.1268 1.65767 17.0359 1.56453 16.9615C1.4714 16.8871 1.36315 16.8307 1.24616 16.7957C1.12918 16.7607 1.00581 16.7478 0.883346 16.7576C0.760474 16.7648 0.64039 16.7947 0.530187 16.8455C0.419984 16.8964 0.321898 16.9673 0.24172 17.0539C0.161542 17.1405 0.1009 17.2412 0.0633755 17.3499C0.0258507 17.4586 0.0122042 17.5732 0.0232421 17.6869C0.140127 19.6208 1.06886 21.4355 2.61067 22.7426C4.15247 24.0496 6.18484 24.7452 8.2728 24.6803C10.3607 24.6155 12.3384 23.7954 13.7824 22.3957C15.2265 20.9959 16.0222 19.1277 15.9992 17.1908V12.2725C15.9902 12.039 15.8895 11.8167 15.716 11.6473Z" fill="white"/>
<path d="M3.5113 16.5002V17.1891C3.50274 17.7404 3.61247 18.2879 3.83412 18.7995C4.05576 19.3112 4.38488 19.7769 4.80237 20.1696C5.21985 20.5623 5.71735 20.8741 6.26597 21.087C6.81458 21.2998 7.40335 21.4094 7.99805 21.4094C8.59275 21.4094 9.18152 21.2998 9.73013 21.087C10.2787 20.8741 10.7762 20.5623 11.1937 20.1696C11.6112 19.7769 11.9403 19.3112 12.162 18.7995C12.3836 18.2879 12.4934 17.7404 12.4848 17.1891V13.5859C12.4882 13.4727 12.465 13.3601 12.4169 13.256C12.3688 13.152 12.2969 13.0588 12.2061 12.983L8.90506 9.92146V8.28518C8.90506 8.05678 8.8072 7.83773 8.63301 7.67623C8.45882 7.51472 8.22256 7.42399 7.97622 7.42399C7.72988 7.42399 7.49362 7.51472 7.31943 7.67623C7.14524 7.83773 7.04738 8.05678 7.04738 8.28518V10.2918C7.04392 10.405 7.06705 10.5175 7.11516 10.6216C7.16328 10.7257 7.23523 10.8189 7.32603 10.8946L10.6253 13.9303V17.1659C10.6318 17.4896 10.5687 17.8113 10.4396 18.1122C10.3106 18.413 10.1181 18.687 9.87348 18.9181C9.62887 19.1492 9.33703 19.3328 9.01502 19.4581C8.693 19.5834 8.34728 19.648 7.99805 19.648C7.64882 19.648 7.30309 19.5834 6.98108 19.4581C6.65906 19.3328 6.36722 19.1492 6.12261 18.9181C5.878 18.687 5.68553 18.413 5.55645 18.1122C5.42737 17.8113 5.36427 17.4896 5.37083 17.1659V16.3675C5.40749 16.2237 5.40548 16.0737 5.365 15.9307C5.32451 15.7878 5.24677 15.6562 5.13862 15.5477H5.1154L5.09218 15.5261L1.85797 12.5318V8.08797C1.85601 7.33967 2.01344 6.59837 2.32122 5.90661C2.629 5.21485 3.08108 4.58625 3.65152 4.05688C4.22195 3.52751 4.89951 3.10778 5.64532 2.82178C6.39113 2.53579 7.1905 2.38915 7.99758 2.39028C11.1129 2.39028 13.787 4.63371 14.0889 7.50236V7.58848C14.098 7.70157 14.1311 7.81189 14.1863 7.91313C14.2414 8.01437 14.3175 8.10454 14.4102 8.17852C14.5029 8.25249 14.6105 8.3088 14.7266 8.34425C14.8428 8.37969 14.9654 8.39357 15.0874 8.38508C15.2094 8.3766 15.3284 8.34593 15.4375 8.29481C15.5467 8.2437 15.644 8.17314 15.7238 8.08717C15.8036 8.00121 15.8643 7.90151 15.9025 7.79378C15.9408 7.68605 15.9557 7.57239 15.9466 7.4593L15.9234 7.32926C15.7142 5.44165 14.7311 3.70063 13.1771 2.46586C11.6231 1.23108 9.61692 0.596883 7.57304 0.694272C5.52915 0.79166 3.60369 1.61319 2.1944 2.98917C0.785106 4.36514 -0.000347152 6.19043 0.000293535 8.08797V12.8969C-0.00292229 13.0101 0.0203175 13.1226 0.0684171 13.2266C0.116517 13.3307 0.188337 13.4238 0.278945 13.4997L3.5113 16.5002Z" fill="white"/>
</svg>
