<svg width="16" height="25" viewBox="0 0 16 25" fill="none" xmlns="http://www.w3.org/2000/svg">
<path d="M15.716 11.6473L12.4845 8.64864V8.30417C12.4931 7.75283 12.3833 7.20541 12.1617 6.69374C11.9401 6.18207 11.6109 5.71636 11.1935 5.32367C10.776 4.93098 10.2785 4.61915 9.72986 4.40631C9.18125 4.19347 8.59248 4.08386 7.99778 4.08386C7.40307 4.08386 6.8143 4.19347 6.26569 4.40631C5.71708 4.61915 5.21958 4.93098 4.80209 5.32367C4.38461 5.71636 4.05548 6.18207 3.83384 6.69374C3.6122 7.20541 3.50247 7.75283 3.51103 8.30417V11.9703C3.50787 12.0835 3.53114 12.1959 3.57924 12.3C3.62733 12.404 3.69912 12.4972 3.78968 12.5731L7.0211 15.5494V17.1857C7.0211 17.4141 7.11896 17.6332 7.29315 17.7947C7.46734 17.9562 7.7036 18.0469 7.94994 18.0469C8.19628 18.0469 8.43254 17.9562 8.60673 17.7947C8.78092 17.6332 8.87878 17.4141 8.87878 17.1857V15.2049C8.88187 15.0918 8.85857 14.9793 8.81048 14.8753C8.76239 14.7713 8.69064 14.6781 8.60013 14.6021L5.37056 11.6051V8.30417C5.36399 7.98043 5.4271 7.65872 5.55618 7.35785C5.68526 7.05698 5.87773 6.78299 6.12234 6.55189C6.36695 6.32079 6.65879 6.13721 6.98081 6.0119C7.30282 5.88658 7.64855 5.82203 7.99778 5.82203C8.34701 5.82203 8.69273 5.88658 9.01475 6.0119C9.33676 6.13721 9.6286 6.32079 9.87321 6.55189C10.1178 6.78299 10.3103 7.05698 10.4394 7.35785C10.5685 7.65872 10.6316 7.98043 10.625 8.30417V8.95093C10.6213 9.0376 10.6291 9.12437 10.6482 9.20929V9.23081C10.653 9.27656 10.6689 9.32072 10.6947 9.35999C10.7528 9.49579 10.849 9.61472 10.9733 9.70447L14.1583 12.6592V17.2107C14.1566 18.7198 13.5095 20.1667 12.3589 21.2341C11.2083 22.3016 9.64818 22.9024 8.02053 22.9049C4.7696 22.8619 2.09269 20.5323 1.88277 17.556C1.87518 17.4423 1.84311 17.3311 1.78846 17.229C1.7338 17.1269 1.65767 17.0359 1.56453 16.9615C1.4714 16.8872 1.36315 16.8308 1.24616 16.7958C1.12918 16.7608 1.00581 16.7478 0.883346 16.7577C0.760474 16.7648 0.64039 16.7947 0.530187 16.8456C0.419984 16.8965 0.321898 16.9673 0.24172 17.054C0.161542 17.1406 0.1009 17.2412 0.0633755 17.3499C0.0258507 17.4586 0.0122042 17.5732 0.0232421 17.6869C0.140127 19.6209 1.06886 21.4356 2.61067 22.7426C4.15247 24.0497 6.18484 24.7452 8.2728 24.6804C10.3607 24.6156 12.3384 23.7955 13.7824 22.3957C15.2265 20.996 16.0222 19.1277 15.9992 17.1909V12.2726C15.9902 12.0391 15.8895 11.8167 15.716 11.6473Z" fill="#878789"/>
<path d="M3.5113 16.5002V17.1892C3.50274 17.7405 3.61247 18.2879 3.83412 18.7996C4.05576 19.3113 4.38488 19.777 4.80237 20.1697C5.21985 20.5624 5.71735 20.8742 6.26597 21.087C6.81458 21.2999 7.40335 21.4095 7.99805 21.4095C8.59275 21.4095 9.18152 21.2999 9.73013 21.087C10.2787 20.8742 10.7762 20.5624 11.1937 20.1697C11.6112 19.777 11.9403 19.3113 12.162 18.7996C12.3836 18.2879 12.4934 17.7405 12.4848 17.1892V13.5859C12.4882 13.4727 12.465 13.3602 12.4169 13.2561C12.3688 13.152 12.2969 13.0589 12.2061 12.9831L8.90506 9.92152V8.28525C8.90506 8.05684 8.8072 7.83779 8.63301 7.67629C8.45882 7.51478 8.22256 7.42405 7.97622 7.42405C7.72988 7.42405 7.49362 7.51478 7.31943 7.67629C7.14524 7.83779 7.04738 8.05684 7.04738 8.28525V10.2918C7.04392 10.405 7.06705 10.5176 7.11516 10.6217C7.16328 10.7258 7.23523 10.8189 7.32603 10.8947L10.6253 13.9304V17.1659C10.6318 17.4897 10.5687 17.8114 10.4396 18.1122C10.3106 18.4131 10.1181 18.6871 9.87348 18.9182C9.62887 19.1493 9.33703 19.3329 9.01502 19.4582C8.693 19.5835 8.34728 19.6481 7.99805 19.6481C7.64882 19.6481 7.30309 19.5835 6.98108 19.4582C6.65906 19.3329 6.36722 19.1493 6.12261 18.9182C5.878 18.6871 5.68553 18.4131 5.55645 18.1122C5.42737 17.8114 5.36427 17.4897 5.37083 17.1659V16.3676C5.40749 16.2238 5.40548 16.0738 5.365 15.9308C5.32451 15.7879 5.24677 15.6563 5.13862 15.5477H5.1154L5.09218 15.5262L1.85797 12.5318V8.08803C1.85601 7.33973 2.01344 6.59843 2.32122 5.90667C2.629 5.21491 3.08108 4.58631 3.65152 4.05694C4.22195 3.52757 4.89951 3.10784 5.64532 2.82184C6.39113 2.53585 7.1905 2.38921 7.99758 2.39035C11.1129 2.39035 13.787 4.63377 14.0889 7.50242V7.58854C14.098 7.70163 14.1311 7.81195 14.1863 7.91319C14.2414 8.01443 14.3175 8.10461 14.4102 8.17858C14.5029 8.25255 14.6105 8.30887 14.7266 8.34431C14.8428 8.37975 14.9654 8.39363 15.0874 8.38515C15.2094 8.37666 15.3284 8.34599 15.4375 8.29487C15.5467 8.24376 15.644 8.1732 15.7238 8.08723C15.8036 8.00127 15.8643 7.90157 15.9025 7.79384C15.9408 7.68611 15.9557 7.57245 15.9466 7.45936L15.9234 7.32932C15.7142 5.44171 14.7311 3.70069 13.1771 2.46592C11.6231 1.23114 9.61692 0.596944 7.57304 0.694333C5.52915 0.791721 3.60369 1.61326 2.1944 2.98923C0.785106 4.3652 -0.000347152 6.19049 0.000293535 8.08803V12.897C-0.00292229 13.0101 0.0203175 13.1226 0.0684171 13.2267C0.116517 13.3307 0.188337 13.4239 0.278945 13.4998L3.5113 16.5002Z" fill="#878789"/>
</svg>
