<svg width="20" height="32" viewBox="0 0 20 32" fill="none" xmlns="http://www.w3.org/2000/svg">
<path d="M19.2374 14.4729L15.282 10.5141V10.0593C15.3028 8.60288 14.7441 7.19785 13.729 6.15325C12.7139 5.10866 11.3255 4.51005 9.86902 4.48909C8.41259 4.46814 7.00748 5.02655 5.96273 6.04151C4.91799 7.05647 4.31918 8.44485 4.29801 9.90128C4.29801 9.95358 4.29801 10.007 4.29801 10.0593V14.8993C4.29415 15.0487 4.32263 15.1972 4.3815 15.3345C4.44037 15.4719 4.52824 15.5949 4.63909 15.6951L8.59452 19.6244V21.7846C8.59452 22.0861 8.7143 22.3753 8.92752 22.5886C9.14074 22.8018 9.42993 22.9216 9.73146 22.9216C10.033 22.9216 10.3222 22.8018 10.5354 22.5886C10.7486 22.3753 10.8684 22.0861 10.8684 21.7846V19.1696C10.8723 19.0202 10.8438 18.8718 10.7849 18.7344C10.726 18.597 10.6382 18.474 10.5273 18.3738L6.57417 14.4172V10.0593C6.56559 9.63659 6.64043 9.21632 6.79442 8.82255C6.94841 8.42878 7.17853 8.06924 7.47161 7.76448C7.76469 7.45973 8.11498 7.21576 8.50244 7.04651C8.8899 6.87727 9.30693 6.78608 9.72966 6.77816C10.1524 6.77023 10.5725 6.84574 10.9661 7.00035C11.3596 7.15496 11.7188 7.38564 12.0231 7.6792C12.3274 7.97276 12.5708 8.32343 12.7394 8.71115C12.9081 9.09888 12.9986 9.51605 13.0059 9.9388C13.0059 9.97859 13.0059 10.0195 13.0059 10.0593V10.9132C13.0011 11.0276 13.0106 11.1422 13.0343 11.2542V11.2827C13.04 11.3431 13.0595 11.4014 13.0911 11.4532C13.1622 11.6325 13.28 11.7895 13.4322 11.908L17.3308 15.8088V21.8176C17.329 23.81 16.537 25.7204 15.1286 27.1296C13.7202 28.5389 11.8103 29.332 9.81787 29.3351C5.83857 29.2782 2.5619 26.2028 2.30495 22.2735C2.28652 21.975 2.15028 21.696 1.9262 21.498C1.70211 21.2999 1.40853 21.1989 1.11002 21.2173H1.0816C0.933585 21.2265 0.788851 21.2649 0.655681 21.3302C0.522511 21.3954 0.40352 21.4863 0.305518 21.5976C0.207517 21.7089 0.13243 21.8385 0.0845546 21.9788C0.0366796 22.1192 0.0169567 22.2676 0.0265149 22.4156C0.0265149 22.4258 0.0265149 22.4361 0.0265149 22.4463C0.169587 24.9995 1.3064 27.3952 3.19365 29.1208C5.0809 30.8463 7.56862 31.7646 10.1244 31.679C12.6801 31.5934 15.1009 30.5108 16.8684 28.6628C18.636 26.8149 19.61 24.3485 19.5819 21.7914V15.2983C19.5714 14.9904 19.4489 14.697 19.2374 14.4729Z" fill="#80225F"/>
<path d="M4.29799 20.8796V21.7892C4.27725 23.2456 4.83587 24.6506 5.85098 25.6952C6.86609 26.7398 8.25456 27.3384 9.71099 27.3594C11.1674 27.3804 12.5725 26.8219 13.6173 25.807C14.662 24.792 15.2608 23.4036 15.282 21.9472C15.282 21.8949 15.282 21.8415 15.282 21.7892V17.0322C15.2862 16.8828 15.2578 16.7342 15.1989 16.5968C15.14 16.4594 15.052 16.3364 14.9409 16.2363L10.9002 12.1945V10.0343C10.9002 9.73278 10.7804 9.4436 10.5672 9.23038C10.354 9.01716 10.0648 8.89738 9.76328 8.89738C9.46174 8.89738 9.17256 9.01716 8.95934 9.23038C8.74612 9.4436 8.62634 9.73278 8.62634 10.0343V12.6834C8.62194 12.8329 8.65018 12.9815 8.70909 13.119C8.76799 13.2564 8.85615 13.3794 8.96742 13.4793L13.0058 17.487V21.7585C13.0144 22.1812 12.9396 22.6015 12.7856 22.9952C12.6316 23.389 12.4015 23.7486 12.1084 24.0533C11.8153 24.3581 11.465 24.602 11.0776 24.7713C10.6901 24.9405 10.2731 25.0317 9.85035 25.0396C9.42761 25.0476 9.00746 24.9721 8.61393 24.8174C8.22041 24.6628 7.86122 24.4321 7.55693 24.1386C7.25264 23.845 7.00922 23.4944 6.84058 23.1066C6.67195 22.7189 6.58141 22.3017 6.57415 21.879C6.57415 21.8392 6.57415 21.7983 6.57415 21.7585V20.7045C6.61882 20.5146 6.61627 20.3167 6.56672 20.128C6.51717 19.9393 6.42213 19.7656 6.28992 19.6222H6.26149L6.23307 19.5937L2.27423 15.6406V9.77396C2.27184 8.78854 2.46357 7.8123 2.83846 6.90098C3.21335 5.98966 3.76408 5.1611 4.45918 4.46262C5.15429 3.76414 5.98017 3.2094 6.88966 2.83009C7.79915 2.45079 8.77445 2.25433 9.75987 2.25194H9.78943C13.6027 2.25194 16.876 5.21368 17.2455 9.00084V9.11453C17.2681 9.41607 17.4096 9.69627 17.6388 9.8935C17.868 10.0907 18.1662 10.1888 18.4677 10.1662C18.7693 10.1436 19.0495 10.0021 19.2467 9.77291C19.4439 9.5437 19.542 9.24553 19.5194 8.94399L19.491 8.77231C19.2349 6.28032 18.0315 3.98185 16.1294 2.35171C14.2272 0.721577 11.7716 -0.115683 9.26976 0.012888C6.76795 0.141459 4.41108 1.22604 2.68604 3.04258C0.960996 4.85912 -0.000438182 7.26885 0.000346051 9.77396V16.1227C-0.00351459 16.2721 0.0249665 16.4205 0.0838379 16.5579C0.142709 16.6953 0.23058 16.8183 0.341429 16.9185L4.29799 20.8796Z" fill="#80225F"/>
</svg>