<svg width="50" height="50" viewBox="0 0 50 50" fill="none" xmlns="http://www.w3.org/2000/svg">
<g clip-path="url(#clip0_3494_32368)">
<path d="M50 25C50 29.9445 48.5338 34.778 45.7868 38.8893C43.0397 43.0005 39.1353 46.2048 34.5671 48.097C29.9989 49.9892 24.9723 50.4843 20.1228 49.5196C15.2732 48.555 10.8187 46.174 7.32234 42.6777C3.82603 39.1814 1.44501 34.7268 0.480379 29.8773C-0.484251 25.0277 0.010832 20.0011 1.90302 15.4329C3.79521 10.8648 6.99953 6.9603 11.1108 4.21326C15.222 1.46622 20.0555 0 25 0C31.6304 0 37.9893 2.63392 42.6777 7.32233C47.3661 12.0107 50 18.3696 50 25Z" fill="#34D399" fill-opacity="0.2"/>
<path d="M33.75 27V17C33.75 15.625 32.625 14.5 31.25 14.5H13.75C12.375 14.5 11.25 15.625 11.25 17V27C11.25 28.375 12.375 29.5 13.75 29.5H31.25C32.625 29.5 33.75 28.375 33.75 27ZM22.5 25.75C20.425 25.75 18.75 24.075 18.75 22C18.75 19.925 20.425 18.25 22.5 18.25C24.575 18.25 26.25 19.925 26.25 22C26.25 24.075 24.575 25.75 22.5 25.75ZM38.75 18.25V32C38.75 33.375 37.625 34.5 36.25 34.5H15V32H36.25V18.25H38.75Z" fill="#34D399"/>
</g>
<defs>
<clipPath id="clip0_3494_32368">
<rect width="50" height="50" fill="white"/>
</clipPath>
</defs>
</svg>
