<svg width="40" height="40" viewBox="0 0 40 40" fill="none" xmlns="http://www.w3.org/2000/svg">
<circle cx="20" cy="20" r="19" fill="#363240" stroke="#3A3F50"/>
<path d="M17.7998 14.4999C17.1923 14.4999 16.6998 14.9924 16.6998 15.5999C16.6998 16.2075 17.1923 16.6999 17.7998 16.6999L23.9442 16.7L22.522 18.1221C22.0924 18.5517 22.0924 19.2482 22.522 19.6778C22.9516 20.1073 23.648 20.1073 24.0776 19.6778L27.3776 16.3778C27.5839 16.1715 27.6998 15.8917 27.6998 15.6C27.6998 15.3082 27.5839 15.0284 27.3776 14.8221L24.0776 11.5221C23.648 11.0926 22.9516 11.0926 22.522 11.5221C22.0924 11.9517 22.0924 12.6482 22.522 13.0778L23.9442 14.5L17.7998 14.4999Z" fill="#FAFAFA"/>
<path d="M22.1998 25.5C22.8073 25.5 23.2998 25.0075 23.2998 24.4C23.2998 23.7924 22.8073 23.3 22.1998 23.3L16.0554 23.3L17.4776 21.8778C17.9072 21.4482 17.9072 20.7517 17.4776 20.3221C17.048 19.8926 16.3516 19.8926 15.922 20.3221L12.622 23.6221C12.4157 23.8284 12.2998 24.1082 12.2998 24.3999C12.2998 24.6917 12.4157 24.9715 12.622 25.1778L15.922 28.4778C16.3516 28.9073 17.048 28.9073 17.4776 28.4778C17.9072 28.0482 17.9072 27.3517 17.4776 26.9221L16.0554 25.4999L22.1998 25.5Z" fill="#FAFAFA"/>
</svg>
