<svg width="54" height="23" viewBox="0 0 54 23" fill="none" xmlns="http://www.w3.org/2000/svg">
<path fill-rule="evenodd" clip-rule="evenodd" d="M3.80526 12.2124V12.4329C3.80526 13.5335 4.75916 14.3407 6.03026 14.3407C7.25361 14.3407 8.18249 13.5824 8.18249 12.6046C8.18082 12.3522 8.12035 12.1036 8.00589 11.8787C7.89143 11.6537 7.72612 11.4585 7.52307 11.3085C7.10695 10.9902 6.81362 10.8674 5.54138 10.399C1.97024 9.12671 0.699133 7.78398 0.699133 5.28271C0.699133 2.32666 2.87524 0.341553 6.07915 0.341553C9.26259 0.341553 11.3091 2.20045 11.5831 5.3316H8.20751C8.08472 3.96726 7.40028 3.30102 6.07915 3.30102C4.88081 3.30102 4.07358 3.98318 4.07358 5.01325C4.07358 5.67382 4.41466 6.18772 5.07636 6.55381C5.5175 6.79825 5.78582 6.92104 6.98415 7.36104C8.77029 8.0216 9.6753 8.48661 10.3848 9.17105C11.2397 9.97828 11.6809 11.0788 11.6809 12.3261C11.6809 15.3094 9.43086 17.2911 6.05527 17.2911C2.6308 17.2911 0.527454 15.3344 0.552467 12.2033L3.80526 12.2124Z" fill="white"/>
<path fill-rule="evenodd" clip-rule="evenodd" d="M39.6269 16.9819H36.5208V8.23421H35.2701V5.61924H36.5208V5.02235C36.5208 1.99012 38.0102 0.572349 41.1186 0.66899V3.5284C40.0419 3.65006 39.6269 4.06618 39.6269 5.02007V5.62152H41.1186V8.23648H39.6269V16.9819Z" fill="white"/>
<path fill-rule="evenodd" clip-rule="evenodd" d="M46.792 13.6562C46.792 14.194 46.9875 14.3384 47.6731 14.3896H48.2109V16.9818H45.7414C44.2259 16.9329 43.6631 16.3224 43.687 14.8296V8.22619H42.3909V5.63396H43.687V2.57672H46.7931V5.63396H48.212V8.22619H46.792V13.6562Z" fill="white"/>
<path fill-rule="evenodd" clip-rule="evenodd" d="M50.4575 7.98971H49.9288V6.24109H49.4263V5.8136H50.9566V6.24109H50.4575V7.98971Z" fill="white"/>
<path fill-rule="evenodd" clip-rule="evenodd" d="M51.7297 7.98971H51.201V5.8136H51.8173L52.3948 6.98465L52.9667 5.8136H53.5864V7.98971H53.0577V6.74703L52.3948 8.07839L51.7297 6.74703V7.98971Z" fill="white"/>
<path fill-rule="evenodd" clip-rule="evenodd" d="M30.8692 5.6124V12.7376C30.8692 13.9064 30.2018 14.6215 29.0808 14.6215C27.9825 14.6215 27.2435 13.787 27.2435 12.5466V5.61127H24.2135V12.8627C24.2135 14.318 24.5955 15.364 25.3823 16.0837C26.2418 16.8704 27.5538 17.3002 29.0808 17.3002C29.6582 17.3033 30.2337 17.2322 30.793 17.0887V18.0403C30.793 18.9942 30.3769 19.4047 29.3013 19.532L27.3321 19.5445V22.4016H29.7106C32.5393 22.3653 33.9014 20.9418 33.9014 18.046V5.6124H30.8692Z" fill="white"/>
<path fill-rule="evenodd" clip-rule="evenodd" d="M21.4416 6.83805C20.5821 6.05015 19.27 5.62152 17.7443 5.62152C17.1665 5.618 16.5907 5.68869 16.0309 5.83186V0.665588H12.9259V16.9171H15.9536V10.1886C15.9536 9.01985 16.6221 8.30357 17.7431 8.30357C18.8403 8.30357 19.5793 9.13923 19.5793 10.3796V16.9171H22.6093V10.0579C22.6093 8.60259 22.2272 7.5566 21.4405 6.83805" fill="white"/>
</svg>