<svg width="40" height="40" viewBox="0 0 40 40" fill="none" xmlns="http://www.w3.org/2000/svg">
<circle cx="20" cy="20" r="19" fill="#9D2308" stroke="#878789"/>
<rect x="13.5" y="10.3335" width="4.33333" height="4.33333" fill="#50329C"/>
<rect x="17.833" y="6.00024" width="4.33333" height="4.33333" fill="#50329C"/>
<rect x="17.833" y="10.3335" width="4.33333" height="4.33333" fill="#50329C"/>
<rect x="17.833" y="14.6667" width="4.33333" height="4.33333" fill="#50329C"/>
<rect x="22.167" y="10.3335" width="4.33333" height="4.33333" fill="#50329C"/>
<rect width="4.33333" height="4.33333" transform="matrix(1 0 0 -1 26.5 19.0002)" fill="#50329C"/>
<rect width="4.33333" height="4.33333" transform="matrix(1 0 0 -1 7 13.3333)" fill="#50329C"/>
<rect width="4.33333" height="4.33333" transform="matrix(1 0 0 -1 29 13.3333)" fill="#50329C"/>
<rect width="4.33333" height="4.33333" transform="matrix(1 0 0 -1 25 10.3333)" fill="#50329C"/>
<rect width="4.33333" height="4.33333" transform="matrix(1 0 0 -1 11 10.3333)" fill="#50329C"/>
<rect width="4.33333" height="4.33333" transform="matrix(1 0 0 -1 17.833 23.3335)" fill="#50329C"/>
<rect width="4.33333" height="4.33333" transform="matrix(1 0 0 -1 24.333 23.3335)" fill="#50329C"/>
<rect width="4.33333" height="4.33333" transform="matrix(1 0 0 -1 20 29.8335)" fill="#50329C"/>
<rect width="4.33333" height="4.33333" transform="matrix(1 0 0 -1 24.333 34.1667)" fill="#50329C"/>
<rect width="4.33333" height="4.33333" transform="matrix(1 0 0 -1 11.333 34.1667)" fill="#50329C"/>
<rect width="4.33333" height="4.33333" transform="matrix(1 0 0 -1 9.16699 29.8335)" fill="#50329C"/>
<rect width="4.33333" height="4.33333" transform="matrix(1 0 0 -1 7 23.3335)" fill="#50329C"/>
<rect width="4.33333" height="4.33333" transform="matrix(1 0 0 -1 26.5 29.8335)" fill="#50329C"/>
<rect width="4.33333" height="4.33333" transform="matrix(1 0 0 -1 28.667 23.3335)" fill="#50329C"/>
<rect width="4.33333" height="4.33333" transform="matrix(1 0 0 -1 15.667 29.8335)" fill="#50329C"/>
<rect width="4.33333" height="4.33333" transform="matrix(1 0 0 -1 11.333 23.3335)" fill="#50329C"/>
<rect x="9.16699" y="14.6667" width="4.33333" height="4.33333" fill="#50329C"/>
</svg>
