<svg width="50" height="50" viewBox="0 0 50 50" fill="none" xmlns="http://www.w3.org/2000/svg">
<g clip-path="url(#clip0_1205_4508)">
<path d="M50.0001 25C50.0001 29.9445 48.5338 34.778 45.7868 38.8893C43.0398 43.0005 39.1353 46.2048 34.5671 48.097C29.999 49.9892 24.9723 50.4843 20.1228 49.5196C15.2733 48.555 10.8187 46.174 7.32234 42.6777C3.82603 39.1814 1.44501 34.7268 0.480379 29.8773C-0.484251 25.0277 0.010832 20.0011 1.90302 15.4329C3.79521 10.8648 6.99953 6.9603 11.1108 4.21326C15.222 1.46622 20.0555 0 25.0001 0C31.6305 0 37.9893 2.63392 42.6777 7.32233C47.3661 12.0107 50.0001 18.3696 50.0001 25Z" fill="#23223E" fill-opacity="0.5"/>
<path d="M15.5958 15.5938H34.3458C34.5649 15.5937 34.7837 15.6076 35.0009 15.6354C34.9273 15.1184 34.7497 14.6218 34.4789 14.1753C34.2082 13.7289 33.8498 13.3419 33.4254 13.0377C33.001 12.7335 32.5194 12.5184 32.0097 12.4053C31.4999 12.2923 30.9725 12.2836 30.4593 12.3799L15.0392 15.0125H15.0216C14.0537 15.1976 13.193 15.7453 12.6152 16.5436C13.4856 15.9244 14.5276 15.5924 15.5958 15.5938Z" fill="#7250F5"/>
<path d="M34.3457 17H15.5957C14.6015 17.0011 13.6483 17.3965 12.9453 18.0995C12.2422 18.8026 11.8468 19.7558 11.8457 20.75V32C11.8468 32.9942 12.2422 33.9474 12.9453 34.6505C13.6483 35.3535 14.6015 35.7489 15.5957 35.75H34.3457C35.3399 35.7489 36.2931 35.3535 36.9962 34.6505C37.6992 33.9474 38.0946 32.9942 38.0957 32V20.75C38.0946 19.7558 37.6992 18.8026 36.9962 18.0995C36.2931 17.3965 35.3399 17.0011 34.3457 17ZM31.5625 28.25C31.1917 28.25 30.8291 28.14 30.5208 27.934C30.2125 27.728 29.9721 27.4351 29.8302 27.0925C29.6883 26.7499 29.6512 26.3729 29.7235 26.0092C29.7959 25.6455 29.9745 25.3114 30.2367 25.0492C30.4989 24.787 30.833 24.6084 31.1967 24.536C31.5604 24.4637 31.9374 24.5008 32.28 24.6427C32.6226 24.7846 32.9155 25.025 33.1215 25.3333C33.3275 25.6416 33.4375 26.0042 33.4375 26.375C33.4375 26.8723 33.24 27.3492 32.8883 27.7008C32.5367 28.0525 32.0598 28.25 31.5625 28.25Z" fill="#7250F5"/>
<path d="M11.875 24.7051V18.875C11.875 17.6053 12.5781 15.4766 15.0186 15.0154C17.0898 14.627 19.1406 14.627 19.1406 14.627C19.1406 14.627 20.4883 15.5645 19.375 15.5645C18.2617 15.5645 18.291 17 19.375 17C20.459 17 19.375 18.377 19.375 18.377L15.0098 23.3281L11.875 24.7051Z" fill="#7250F5"/>
</g>
<defs>
<clipPath id="clip0_1205_4508">
<rect width="50" height="50" fill="white"/>
</clipPath>
</defs>
</svg>
