<svg width="56" height="56" viewBox="0 0 56 56" fill="none" xmlns="http://www.w3.org/2000/svg">
<path fill-rule="evenodd" clip-rule="evenodd" d="M10.5 10.5C10.5 4.70101 15.201 0 21 0C23.6892 0 26.1423 1.01099 28 2.67363C29.8576 1.01099 32.3107 0 35 0C40.799 0 45.5 4.70101 45.5 10.5C45.5 11.7272 45.2894 12.9053 44.9025 14H49C52.866 14 56 17.134 56 21C56 24.866 52.866 28 49 28H31.5V24.5C31.5 22.567 29.933 21 28 21C26.067 21 24.5 22.567 24.5 24.5V28H6.99999C3.134 28 0 24.866 0 21C0 17.134 3.134 14 6.99999 14H11.0975C10.7105 12.9053 10.5 11.7272 10.5 10.5ZM24.5 14V10.5C24.5 8.567 22.933 7 21 7C19.067 7 17.5 8.567 17.5 10.5C17.5 12.433 19.067 14 21 14H24.5ZM35 14C36.933 14 38.5 12.433 38.5 10.5C38.5 8.567 36.933 7 35 7C33.067 7 31.5 8.567 31.5 10.5V14H35Z" fill="#FAFAFA"/>
<path d="M24.5 31.5H3.5V49C3.5 52.866 6.634 56 10.5 56H24.5V31.5Z" fill="#FAFAFA"/>
<path d="M31.5 56H45.5C49.366 56 52.5 52.866 52.5 49V31.5H31.5V56Z" fill="#FAFAFA"/>
</svg>
