<svg width="21" height="24" viewBox="0 0 21 24" fill="none" xmlns="http://www.w3.org/2000/svg">
<path d="M13.9107 1.32205C11.8099 0.833883 9.62506 0.833883 7.52422 1.32205C6.31086 0.577877 5.38451 0.235866 4.7108 0.0915004C4.42326 0.026605 4.12904 -0.00397108 3.83429 0.000412379C3.70018 0.00404717 3.5667 0.0201573 3.43557 0.0485344L3.41838 0.0519716L3.41151 0.0554089H3.40635L3.64181 0.882077L3.40635 0.0571276C3.28561 0.0912485 3.17381 0.151396 3.07879 0.233344C2.98378 0.315292 2.90787 0.417051 2.85639 0.531473C2.34934 1.66699 2.25274 2.94345 2.58312 4.14234C1.72747 5.1793 1.26118 6.48272 1.26492 7.82711C1.26492 10.4962 2.05206 12.2904 3.39432 13.4436C4.33442 14.2514 5.4756 14.6811 6.62022 14.9268C6.44009 15.4558 6.37219 16.0166 6.42085 16.5733V17.601C5.72136 17.7471 5.23671 17.7007 4.89126 17.5873C4.45988 17.4446 4.12818 17.1576 3.81023 16.7452C3.64402 16.5228 3.48915 16.2922 3.3462 16.0543L3.24824 15.8944C3.12454 15.6887 2.99618 15.4859 2.86326 15.286C2.53672 14.8031 2.05206 14.1981 1.26836 13.9919L0.436535 13.7736L0 15.4373L0.831823 15.6555C0.969315 15.6899 1.14805 15.8188 1.44194 16.2502C1.55506 16.4205 1.66394 16.5935 1.76848 16.7692L1.88535 16.9583C2.0469 17.2195 2.23252 17.5082 2.44735 17.7901C2.88216 18.3572 3.4751 18.9296 4.35504 19.22C4.95657 19.4194 5.64059 19.4675 6.42085 19.3472V22.5559C6.42085 22.7838 6.51139 23.0024 6.67254 23.1635C6.8337 23.3247 7.05227 23.4152 7.28017 23.4152H14.1547C14.3827 23.4152 14.6012 23.3247 14.7624 23.1635C14.9235 23.0024 15.0141 22.7838 15.0141 22.5559V16.4324C15.0141 15.891 14.99 15.3943 14.8371 14.932C15.9765 14.6914 17.1091 14.2617 18.044 13.454C19.3846 12.2922 20.17 10.4807 20.17 7.79618V7.79446C20.1657 6.46107 19.6992 5.17041 18.8501 4.14234C19.1801 2.94398 19.0835 1.66821 18.5768 0.533192C18.5257 0.418634 18.4502 0.316653 18.3554 0.23441C18.2607 0.152167 18.1492 0.091656 18.0286 0.0571276L17.7931 0.882077C18.0286 0.0571277 18.0269 0.0571276 18.0251 0.0571276L18.0217 0.0554089L18.0148 0.0519716L17.9994 0.0485344C17.9569 0.0374974 17.9139 0.0288902 17.8705 0.0227548C17.7805 0.00961922 17.6898 0.00215701 17.5989 0.000412379C17.3042 -0.00393876 17.01 0.0266369 16.7224 0.0915004C16.0504 0.235866 15.1241 0.577877 13.9107 1.32205Z" fill="#FAFAFA"/>
</svg>
