<svg width="25" height="26" viewBox="0 0 25 26" fill="none" xmlns="http://www.w3.org/2000/svg">
<path d="M3.72337 0.500001C3.33311 0.499705 2.9466 0.5763 2.58594 0.72541C2.22528 0.874521 1.89753 1.09322 1.62142 1.36903C1.3453 1.64483 1.12622 1.97234 0.976701 2.33283C0.827182 2.69332 0.750148 3.07973 0.75 3.47C0.75 5.1125 2.08088 6.47375 3.72 6.47375C5.36138 6.47375 6.69338 5.1125 6.69338 3.47225C6.69367 3.08204 6.61707 2.69559 6.46794 2.33499C6.31882 1.97439 6.1001 1.64672 5.82428 1.37069C5.54846 1.09466 5.22095 0.875691 4.86047 0.726293C4.49998 0.576896 4.11359 0.500001 3.72337 0.500001ZM18.2269 8.375C15.7305 8.375 14.3029 9.68 13.6166 10.9783H13.5446V8.72488H8.625V25.25H13.7516V17.0701C13.7516 14.9146 13.9136 12.8311 16.581 12.8311C19.2101 12.8311 19.2484 15.2893 19.2484 17.2063V25.25H24.375V16.1735C24.375 11.732 23.4199 8.375 18.2269 8.375ZM1.15837 8.72375V25.25H6.28838V8.72375H1.15837Z" fill="#FAFAFA"/>
</svg>
