<svg width="28" height="16" viewBox="0 0 28 16" fill="none" xmlns="http://www.w3.org/2000/svg">
<path d="M15.7937 7.87501C15.7937 12.2238 12.2587 15.75 7.896 15.75C6.86046 15.7514 5.83479 15.5488 4.87755 15.1538C3.92031 14.7588 3.05024 14.1791 2.31703 13.4478C1.58382 12.7166 1.00182 11.848 0.604264 10.8919C0.206707 9.93567 0.00137796 8.91055 0 7.87501C0 3.52451 3.535 9.5268e-06 7.896 9.5268e-06C8.93169 -0.00160031 9.95754 0.200828 10.915 0.595735C11.8724 0.990641 12.7427 1.57029 13.4761 2.30157C14.2095 3.03286 14.7917 3.90145 15.1893 4.85775C15.587 5.81405 15.7924 6.83932 15.7937 7.87501ZM24.4563 7.87501C24.4563 11.97 22.6887 15.288 20.5082 15.288C18.3277 15.288 16.5603 11.9683 16.5603 7.87501C16.5603 3.78001 18.3277 0.462009 20.5082 0.462009C22.6887 0.462009 24.4563 3.78176 24.4563 7.87501ZM28 7.87501C28 11.543 27.3787 14.5163 26.6105 14.5163C25.844 14.5163 25.2227 11.5413 25.2227 7.87501C25.2227 4.20701 25.844 1.23376 26.6122 1.23376C27.3787 1.23376 28 4.20701 28 7.87501Z" fill="#FAFAFA"/>
</svg>
