<svg width="32" height="32" viewBox="0 0 32 32" fill="none" xmlns="http://www.w3.org/2000/svg">
<path d="M31.5214 19.8692C29.3836 28.4452 20.6947 33.6585 12.131 31.5206C3.55473 29.3829 -1.65852 20.6944 0.479358 12.1307C2.61711 3.55473 11.2934 -1.65852 19.8696 0.479359C28.4334 2.60461 33.6592 11.2931 31.5214 19.8692Z" fill="#994D7E"/>
<g clip-path="url(#clip0_5000_43148)">
<path d="M21.7899 15.1715L19.3655 12.6669V12.3783C19.3655 10.4686 17.8655 8.90089 15.999 8.90089C15.5566 8.89994 15.1183 8.98927 14.7094 9.16373C14.3005 9.33819 13.929 9.59435 13.6162 9.91749C13.3035 10.2406 13.0557 10.6244 12.8871 11.0467C12.7185 11.469 12.6323 11.9215 12.6336 12.3783V15.4415C12.6336 15.6397 12.7034 15.8197 12.8431 15.946L15.2673 18.4317V19.8009C15.2673 19.9919 15.3408 20.1751 15.4716 20.3102C15.6025 20.4453 15.7799 20.5212 15.965 20.5212C16.15 20.5212 16.3275 20.4453 16.4583 20.3102C16.5892 20.1751 16.6627 19.9919 16.6627 19.8009V18.1437C16.6627 17.9455 16.593 17.7652 16.4535 17.6392L14.0291 15.1346V12.3783C14.0291 11.2612 14.9186 10.3423 15.9999 10.3423C17.0812 10.3423 17.9707 11.2612 17.9707 12.3783V12.9189C17.9678 12.9915 17.9737 13.0641 17.9881 13.1352V13.1532C17.9918 13.1914 18.0037 13.2283 18.023 13.2612C18.0578 13.3695 18.145 13.4775 18.2322 13.5495L20.6217 16.018V19.8197C20.6217 22.4326 18.5638 24.5766 16.017 24.5766C13.5752 24.5406 11.5695 22.5946 11.4126 20.108C11.3951 19.7117 11.0462 19.4055 10.6626 19.4415C10.279 19.4595 9.98257 19.8197 10.0174 20.2163C10.2267 23.4595 12.8606 26 15.9999 26C19.3138 26 22 23.2252 22 19.8017V15.6937C22 15.4955 21.9128 15.3143 21.7899 15.1715Z" fill="#FAFAFA"/>
<path d="M12.6336 19.2242V19.8008C12.6336 21.7108 14.1337 23.2782 15.9999 23.2782C16.4424 23.2793 16.8808 23.1901 17.2899 23.0157C17.699 22.8414 18.0706 22.5852 18.3835 22.2621C18.6963 21.9389 18.9442 21.5551 19.1129 21.1327C19.2816 20.7103 19.3677 20.2576 19.3664 19.8008V16.7919C19.3664 16.5936 19.2963 16.4133 19.1569 16.2873L16.6801 13.7288V12.3593C16.682 12.2636 16.6653 12.1684 16.6311 12.0793C16.5969 11.9903 16.5458 11.9092 16.4808 11.8408C16.4159 11.7724 16.3383 11.718 16.2528 11.6809C16.1672 11.6438 16.0754 11.6247 15.9826 11.6247C15.8898 11.6247 15.7979 11.6438 15.7124 11.6809C15.6268 11.718 15.5493 11.7724 15.4843 11.8408C15.4194 11.9092 15.3683 11.9903 15.334 12.0793C15.2998 12.1684 15.2831 12.2636 15.285 12.3593V14.035C15.285 14.2333 15.3547 14.4133 15.4942 14.5396L17.9707 17.0802V19.7828C17.9707 20.8999 17.0812 21.8188 15.9996 21.8188C14.918 21.8188 14.0288 20.8999 14.0288 19.7828V19.1162C14.0565 18.9959 14.0551 18.8704 14.0247 18.7508C13.9943 18.6312 13.9358 18.5212 13.8544 18.4305H13.837L13.8196 18.4122L11.3951 15.9079V12.1973C11.3943 11.5727 11.5129 10.954 11.744 10.3767C11.9751 9.79942 12.3142 9.27484 12.7419 8.833C13.1696 8.39116 13.6775 8.04074 14.2365 7.80179C14.7956 7.56285 15.3948 7.44007 15.9999 7.44048C18.3371 7.44048 20.343 9.31448 20.5697 11.7108V11.7828C20.5836 11.9738 20.6704 12.1513 20.8111 12.2763C20.9517 12.4012 21.1347 12.4634 21.3197 12.4491C21.5048 12.4347 21.6767 12.3451 21.7978 12.1999C21.9188 12.0547 21.979 11.8658 21.9651 11.6748L21.9477 11.5665C21.8074 10.0399 21.1195 8.62256 20.0191 7.59254C18.9187 6.56252 17.4852 5.99419 15.9999 5.99905C12.6859 5.99905 10 8.77391 10 12.1973V16.2153C10 16.4133 10.0697 16.5936 10.2092 16.7199L12.6336 19.2242Z" fill="#FAFAFA"/>
</g>
<defs>
<clipPath id="clip0_5000_43148">
<rect width="12" height="20" fill="white" transform="translate(10 6)"/>
</clipPath>
</defs>
</svg>
