<svg width="24" height="18" viewBox="0 0 24 18" fill="none" xmlns="http://www.w3.org/2000/svg">
<path d="M7.53321 18C4.76035 18 2.17558 17.2636 0 15.9931C1.84714 16.1022 5.10692 15.8409 7.1345 14.0751C4.08435 13.9473 2.7088 11.8114 2.52938 10.8986C2.78854 10.9899 4.02454 11.0994 4.72229 10.8438C1.21363 10.0406 0.675367 7.22921 0.79498 6.3712C1.45285 6.79108 2.56925 6.93712 3.00783 6.90061C-0.261606 4.76471 0.914594 1.55172 1.49273 0.858012C3.83899 3.82591 7.35532 5.49279 11.7055 5.58551C11.6234 5.25706 11.5801 4.91511 11.5801 4.56389C11.5801 2.04333 13.8115 0 16.564 0C18.0022 0 19.2981 0.557807 20.2077 1.45005C21.1688 1.24443 22.6151 0.763097 23.3222 0.346856C22.9658 1.51521 21.8562 2.48986 21.1851 2.8511C21.1906 2.86339 21.1796 2.83876 21.1851 2.8511C21.7746 2.76968 23.3698 2.48977 24 2.09939C23.6884 2.75576 22.512 3.84709 21.5466 4.45807C21.7262 11.6907 15.6656 18 7.53321 18Z" fill="white"/>
</svg>
